HIERARCHY
ROOT Hips
{
	OFFSET 0.000000 83.214638 0.000000
	CHANNELS 6 Xposition Yposition Zposition Xrotation Yrotation Zrotation
	JOINT Pelvis
	{
		OFFSET 0.000000 0.000000 0.000000
		CHANNELS 3 Xrotation Yrotation Zrotation
		JOINT LeftUpLeg
		{
			OFFSET 8.479700 -4.795502 -0.379100
			CHANNELS 3 Xrotation Yrotation Zrotation
			JOINT LeftLeg
			{
				OFFSET 0.024144 -32.555107 0.112900
				CHANNELS 3 Xrotation Yrotation Zrotation
				JOINT LeftFoot
				{
					OFFSET -0.024144 -32.638630 -3.012600
					CHANNELS 3 Xrotation Yrotation Zrotation
					JOINT LeftToeBase
					{
						OFFSET 0.970200 -13.225400 11.864200
						CHANNELS 3 Xrotation Yrotation Zrotation
						End Site
						{
							OFFSET 0.000000 12.319262 0.000000
						}
					}
					JOINT LFootTongue
					{
						OFFSET 1.142400 -1.059800 6.665200
						CHANNELS 3 Xrotation Yrotation Zrotation
						End Site
						{
							OFFSET 0.000000 12.319262 0.000000
						}
					}
				}
				JOINT LeftPantLeg
				{
					OFFSET 0.918482 -16.533964 -2.284700
					CHANNELS 3 Xrotation Yrotation Zrotation
					End Site
					{
						OFFSET 0.350399 24.744368 0.000000
					}
				}
			}
		}
		JOINT RightUpLeg
		{
			OFFSET -8.479700 -4.795502 -0.379100
			CHANNELS 3 Xrotation Yrotation Zrotation
			JOINT RightLeg
			{
				OFFSET -0.023144 -32.555092 0.112900
				CHANNELS 3 Xrotation Yrotation Zrotation
				JOINT RightFoot
				{
					OFFSET 0.023144 -32.638641 -3.012700
					CHANNELS 3 Xrotation Yrotation Zrotation
					JOINT RightToeBase
					{
						OFFSET -0.970200 -13.225400 11.864200
						CHANNELS 3 Xrotation Yrotation Zrotation
						End Site
						{
							OFFSET 0.000000 12.319244 0.000000
						}
					}
					JOINT RFootTongue
					{
						OFFSET -1.142200 -1.059800 6.665200
						CHANNELS 3 Xrotation Yrotation Zrotation
						End Site
						{
							OFFSET 0.000000 12.319243 0.000000
						}
					}
				}
				JOINT RightPantLeg
				{
					OFFSET -0.919482 -16.533978 -2.284800
					CHANNELS 3 Xrotation Yrotation Zrotation
					End Site
					{
						OFFSET -0.350400 24.744419 0.000000
					}
				}
			}
		}
	}
	JOINT Spine
	{
		OFFSET 0.000000 7.722000 1.166200
		CHANNELS 3 Xrotation Yrotation Zrotation
		JOINT Spine1
		{
			OFFSET 0.000000 12.024101 0.248800
			CHANNELS 3 Xrotation Yrotation Zrotation
			JOINT Spine2
			{
				OFFSET 0.000000 11.502998 -0.491200
				CHANNELS 3 Xrotation Yrotation Zrotation
				JOINT Neck
				{
					OFFSET 0.000000 18.430702 -3.123100
					CHANNELS 3 Xrotation Yrotation Zrotation
					JOINT Head
					{
						OFFSET 0.000000 9.051102 1.034000
						CHANNELS 3 Xrotation Yrotation Zrotation
						JOINT HairB
						{
							OFFSET 0.208400 24.786102 24.822300
							CHANNELS 3 Xrotation Yrotation Zrotation
							End Site
							{
								OFFSET 0.000000 32.263779 0.000000
							}
						}
						JOINT HairA
						{
							OFFSET -7.081100 24.428299 23.196600
							CHANNELS 3 Xrotation Yrotation Zrotation
							End Site
							{
								OFFSET 0.000000 32.263779 0.000000
							}
						}
						JOINT Hat
						{
							OFFSET 16.728800 15.048294 -15.439601
							CHANNELS 3 Xrotation Yrotation Zrotation
							End Site
							{
								OFFSET 0.000000 32.263779 0.000000
							}
						}
					}
				}
				JOINT LeftShoulder
				{
					OFFSET 6.197800 13.665199 -4.064700
					CHANNELS 3 Xrotation Yrotation Zrotation
					JOINT LeftArm
					{
						OFFSET 7.778100 -0.187103 -1.709300
						CHANNELS 3 Xrotation Yrotation Zrotation
						JOINT LeftForeArm
						{
							OFFSET 22.049376 0.000000 0.000000
							CHANNELS 3 Xrotation Yrotation Zrotation
							JOINT LeftHand
							{
								OFFSET 23.009392 0.000000 0.000000
								CHANNELS 3 Xrotation Yrotation Zrotation
								JOINT LeftHandThumb1
								{
									OFFSET 3.507191 -2.063065 3.133727
									CHANNELS 3 Xrotation Yrotation Zrotation
									JOINT LeftHandThumb2
									{
										OFFSET 3.101337 -1.790558 1.790558
										CHANNELS 3 Xrotation Yrotation Zrotation
										JOINT LeftHandThumb3
										{
											OFFSET 3.058640 -1.765907 1.765906
											CHANNELS 3 Xrotation Yrotation Zrotation
											End Site
											{
												OFFSET -0.415260 3.926476 -0.049563
											}
										}
									}
								}
								JOINT LeftHandIndex1
								{
									OFFSET 11.334419 -0.901459 3.706815
									CHANNELS 3 Xrotation Yrotation Zrotation
									JOINT LeftHandIndex2
									{
										OFFSET 3.283112 0.000000 0.000000
										CHANNELS 3 Xrotation Yrotation Zrotation
										JOINT LeftHandIndex3
										{
											OFFSET 3.323853 0.000000 0.000000
											CHANNELS 3 Xrotation Yrotation Zrotation
											End Site
											{
												OFFSET -1.135597 3.097809 0.402452
											}
										}
									}
								}
								JOINT LeftHandMiddle1
								{
									OFFSET 11.335861 0.000000 0.000000
									CHANNELS 3 Xrotation Yrotation Zrotation
									JOINT LeftHandMiddle2
									{
										OFFSET 3.410492 0.000000 0.000000
										CHANNELS 3 Xrotation Yrotation Zrotation
										JOINT LeftHandMiddle3
										{
											OFFSET 3.312172 0.000000 0.000000
											CHANNELS 3 Xrotation Yrotation Zrotation
											End Site
											{
												OFFSET -1.150200 3.080154 0.400270
											}
										}
									}
								}
								JOINT LeftHandRing1
								{
									OFFSET 11.514786 -0.013176 -3.003090
									CHANNELS 3 Xrotation Yrotation Zrotation
									JOINT LeftHandRing2
									{
										OFFSET 3.053307 0.000000 0.000000
										CHANNELS 3 Xrotation Yrotation Zrotation
										JOINT LeftHandRing3
										{
											OFFSET 3.295807 0.000000 0.000000
											CHANNELS 3 Xrotation Yrotation Zrotation
											End Site
											{
												OFFSET -1.281006 3.013344 0.375733
											}
										}
									}
								}
								JOINT LeftHandPinky1
								{
									OFFSET 10.518692 -0.960396 -5.730441
									CHANNELS 3 Xrotation Yrotation Zrotation
									JOINT LeftHandPinky2
									{
										OFFSET 2.861649 0.000000 0.000000
										CHANNELS 3 Xrotation Yrotation Zrotation
										JOINT LeftHandPinky3
										{
											OFFSET 2.863380 0.000000 0.000000
											CHANNELS 3 Xrotation Yrotation Zrotation
											End Site
											{
												OFFSET -0.843597 2.711159 0.369971
											}
										}
									}
								}
							}
							JOINT LSleeve
							{
								OFFSET 6.676277 -0.344902 -1.011730
								CHANNELS 3 Xrotation Yrotation Zrotation
								End Site
								{
									OFFSET 0.000000 14.885353 0.000000
								}
							}
						}
					}
				}
				JOINT RightShoulder
				{
					OFFSET -6.197800 13.665199 -4.064700
					CHANNELS 3 Xrotation Yrotation Zrotation
					JOINT RightArm
					{
						OFFSET -7.778100 -0.187103 -1.709300
						CHANNELS 3 Xrotation Yrotation Zrotation
						JOINT RightForeArm
						{
							OFFSET -22.049376 0.000000 0.000000
							CHANNELS 3 Xrotation Yrotation Zrotation
							JOINT RightHand
							{
								OFFSET -23.009392 0.000000 0.000000
								CHANNELS 3 Xrotation Yrotation Zrotation
								JOINT RightHandThumb1
								{
									OFFSET -3.507191 -2.063065 3.133727
									CHANNELS 3 Xrotation Yrotation Zrotation
									JOINT RightHandThumb2
									{
										OFFSET -3.101337 -1.790558 1.790558
										CHANNELS 3 Xrotation Yrotation Zrotation
										JOINT RightHandThumb3
										{
											OFFSET -3.058640 -1.765907 1.765906
											CHANNELS 3 Xrotation Yrotation Zrotation
											End Site
											{
												OFFSET 0.415260 3.926476 -0.049563
											}
										}
									}
								}
								JOINT RightHandIndex1
								{
									OFFSET -11.334419 -0.901459 3.706815
									CHANNELS 3 Xrotation Yrotation Zrotation
									JOINT RightHandIndex2
									{
										OFFSET -3.283112 0.000000 0.000000
										CHANNELS 3 Xrotation Yrotation Zrotation
										JOINT RightHandIndex3
										{
											OFFSET -3.323853 0.000000 0.000000
											CHANNELS 3 Xrotation Yrotation Zrotation
											End Site
											{
												OFFSET 1.135597 3.097809 0.402452
											}
										}
									}
								}
								JOINT RightHandMiddle1
								{
									OFFSET -11.335861 0.000000 0.000000
									CHANNELS 3 Xrotation Yrotation Zrotation
									JOINT RightHandMiddle2
									{
										OFFSET -3.410492 0.000000 0.000000
										CHANNELS 3 Xrotation Yrotation Zrotation
										JOINT RightHandMiddle3
										{
											OFFSET -3.312172 0.000000 0.000000
											CHANNELS 3 Xrotation Yrotation Zrotation
											End Site
											{
												OFFSET 1.150200 3.080154 0.400270
											}
										}
									}
								}
								JOINT RightHandRing1
								{
									OFFSET -11.514786 -0.013176 -3.003090
									CHANNELS 3 Xrotation Yrotation Zrotation
									JOINT RightHandRing2
									{
										OFFSET -3.053307 0.000000 0.000000
										CHANNELS 3 Xrotation Yrotation Zrotation
										JOINT RightHandRing3
										{
											OFFSET -3.295807 0.000000 0.000000
											CHANNELS 3 Xrotation Yrotation Zrotation
											End Site
											{
												OFFSET 1.281006 3.013344 0.375733
											}
										}
									}
								}
								JOINT RightHandPinky1
								{
									OFFSET -10.518692 -0.960396 -5.730441
									CHANNELS 3 Xrotation Yrotation Zrotation
									JOINT RightHandPinky2
									{
										OFFSET -2.861649 0.000000 0.000000
										CHANNELS 3 Xrotation Yrotation Zrotation
										JOINT RightHandPinky3
										{
											OFFSET -2.863380 0.000000 0.000000
											CHANNELS 3 Xrotation Yrotation Zrotation
											End Site
											{
												OFFSET 0.843597 2.711159 0.369971
											}
										}
									}
								}
							}
							JOINT RSleeve
							{
								OFFSET -6.676277 -0.344902 -1.011730
								CHANNELS 3 Xrotation Yrotation Zrotation
								End Site
								{
									OFFSET 0.000000 14.885353 0.000000
								}
							}
						}
					}
				}
				JOINT Backpack
				{
					OFFSET 0.000000 -2.471497 36.677502
					CHANNELS 3 Xrotation Yrotation Zrotation
					End Site
					{
						OFFSET 0.000000 20.427315 0.000000
					}
				}
				JOINT Hood
				{
					OFFSET 0.000000 18.754097 -10.431000
					CHANNELS 3 Xrotation Yrotation Zrotation
					JOINT Hood1
					{
						OFFSET 0.000000 -5.011002 -7.685901
						CHANNELS 3 Xrotation Yrotation Zrotation
						End Site
						{
							OFFSET 0.000000 9.175140 0.000000
						}
					}
				}
				JOINT LHoodieString
				{
					OFFSET 5.250500 16.397697 3.089900
					CHANNELS 3 Xrotation Yrotation Zrotation
					JOINT LHoodieString1
					{
						OFFSET 0.257700 -6.364304 3.694600
						CHANNELS 3 Xrotation Yrotation Zrotation
						JOINT LHoodieString2
						{
							OFFSET 0.000000 -9.643799 2.679100
							CHANNELS 3 Xrotation Yrotation Zrotation
							End Site
							{
								OFFSET 0.000000 10.009018 0.000000
							}
						}
					}
				}
				JOINT RHoodieString
				{
					OFFSET -5.250500 16.397697 3.089900
					CHANNELS 3 Xrotation Yrotation Zrotation
					JOINT RHoodieString1
					{
						OFFSET -0.257700 -6.364304 3.694600
						CHANNELS 3 Xrotation Yrotation Zrotation
						JOINT RHoodieString2
						{
							OFFSET 0.000000 -9.643799 2.679100
							CHANNELS 3 Xrotation Yrotation Zrotation
							End Site
							{
								OFFSET 0.000000 10.009018 0.000000
							}
						}
					}
				}
			}
			JOINT LBackpack_Strap
			{
				OFFSET 15.223200 -7.719803 -6.610900
				CHANNELS 3 Xrotation Yrotation Zrotation
				End Site
				{
					OFFSET 0.000000 16.040596 0.000000
				}
			}
			JOINT RBackpack_Strap
			{
				OFFSET -15.223000 -7.719803 -6.610900
				CHANNELS 3 Xrotation Yrotation Zrotation
				End Site
				{
					OFFSET 0.000000 16.040596 0.000000
				}
			}
		}
	}
	JOINT BoyFacialAnim_Joint
	{
		OFFSET 1.000000 -82.208099 -1.550900
		CHANNELS 3 Xrotation Yrotation Zrotation
		End Site
		{
			OFFSET 0.000000 30.012791 0.000000
		}
	}
}
MOTION
Frames: 4
Frame Time: 0.033333
-3.178041 73.564987 -6.868057 54.079184 25.688654 -10.043984 -0.000002 -0.000001 0.000002 -80.709921 15.712652 -5.140004 32.304401 -8.480839 -2.651130 1.664185 -6.730847 1.199696 0.000000 0.000000 -0.000000 0.000000 0.000000 -0.000000 0.000000 -0.000002 -0.000000 -94.328444 -14.798185 -26.151310 57.290766 1.734007 1.450665 -20.732623 -9.496684 -8.563445 0.000000 0.000002 0.000000 0.000000 0.000002 0.000000 -0.000001 0.000000 -0.000001 63.474949 8.642349 10.897220 -4.316359 2.052154 -7.203666 -4.196227 1.344137 -7.459179 5.297089 -3.626697 0.758483 7.998157 -22.612542 21.608997 -0.000001 0.000000 -0.000001 -0.000001 0.000000 -0.000001 -0.000001 0.000000 -0.000001 -0.260579 3.709964 -0.027941 45.475813 -30.386098 -26.617619 -0.000004 -52.204171 0.000018 19.202208 -7.768918 28.757207 -4.333673 -0.626933 10.415173 2.449626 19.472856 1.575905 0.000002 -0.000003 0.000002 1.760947 6.053860 -19.780260 1.779009 4.623348 -42.074682 -0.000002 0.000000 -0.000002 1.795440 6.014429 -20.450162 2.561148 5.361196 -51.043899 -0.000000 -0.000003 0.000001 2.325849 6.338891 -25.939406 1.360616 4.114194 -36.586185 -0.000001 -0.000002 0.000001 4.687772 10.019035 -29.413107 0.572227 -1.319749 -23.828978 -0.000000 -0.000000 -0.000000 -0.000001 0.000001 -0.000000 1.559203 4.023373 -7.345274 4.458634 40.051854 -28.577501 -0.000011 29.988280 0.000039 -6.121727 3.651350 -29.338897 26.537361 20.691153 22.275118 11.076805 -14.390022 -17.068663 -0.000000 0.000001 -0.000002 0.332196 -2.158548 14.975477 2.072003 -4.955773 45.358371 0.000001 -0.000000 0.000002 0.501362 -2.670614 17.272941 1.855028 -4.732460 42.789609 -0.000001 0.000001 0.000002 0.842131 -3.421385 22.412847 1.830676 -4.706115 42.493639 -0.000000 0.000001 0.000002 1.076982 -3.801648 26.442994 0.660356 -2.962395 25.127779 -0.000005 -0.000001 -0.000002 -0.000000 -0.000002 0.000000 -0.000001 0.000000 -0.000002 -0.000001 0.000000 -0.000002 -0.000001 0.000000 -0.000002 -0.000001 0.000000 -0.000002 -0.000001 0.000000 -0.000003 -0.000000 -0.000003 -0.000000 -0.000001 0.000000 -0.000002 -0.000001 0.000000 -0.000003 -0.000000 -0.000003 -0.000000 0.000001 0.000000 -0.000000 0.000001 0.000000 -0.000000 -0.000002 -0.000001 0.000002 
-3.096210 73.505768 -6.785206 54.083135 25.771767 -9.934466 -0.000000 0.000001 -0.000000 -80.718506 16.104416 -5.077809 32.649646 -8.481223 -2.821238 1.439984 -6.916452 1.447409 -0.000000 0.000000 0.000000 -0.000000 0.000000 0.000000 -0.000000 0.000001 -0.000000 -94.436969 -14.560720 -26.335459 57.659139 1.741681 1.595287 -20.973196 -9.485040 -8.893590 0.000000 0.000000 -0.000000 0.000000 0.000000 -0.000000 0.000002 0.000000 0.000000 64.064319 8.705704 10.855215 -4.491787 2.092389 -7.276098 -4.368683 1.374789 -7.542458 5.213103 -3.700141 1.080660 8.045151 -22.508301 21.433176 -0.000000 0.000001 0.000001 -0.000000 0.000001 0.000001 -0.000000 0.000001 0.000001 -0.267798 3.722804 0.082098 45.471486 -29.974627 -26.349751 -0.000016 -52.246648 -0.000020 19.009803 -7.643567 28.691405 -4.637359 -1.004305 10.753166 3.761860 19.191551 1.543408 -0.000001 0.000001 -0.000000 1.715527 6.012555 -19.361349 1.768994 4.612259 -41.950243 -0.000001 -0.000001 -0.000004 1.754795 5.978120 -20.070436 2.551264 5.353262 -50.938157 -0.000000 -0.000002 0.000002 2.286801 6.310003 -25.589737 1.356470 4.108627 -36.528688 -0.000001 0.000003 0.000002 4.628476 10.005983 -29.072103 0.572214 -1.319727 -23.828966 -0.000002 -0.000001 -0.000000 0.000001 0.000001 -0.000000 1.312603 3.291008 -7.008017 4.245059 41.152061 -28.363209 0.000021 29.398316 -0.000021 -5.597381 2.669036 -29.563326 26.537356 20.691167 22.275093 11.076805 -14.390024 -17.068629 0.000000 0.000001 0.000004 0.332202 -2.158543 14.975475 2.071988 -4.955759 45.358327 0.000003 0.000000 0.000002 0.501353 -2.670618 17.272958 1.855035 -4.732471 42.789592 -0.000003 0.000002 0.000000 0.842125 -3.421377 22.412851 1.830699 -4.706145 42.493674 -0.000004 -0.000001 0.000002 1.076970 -3.801644 26.442992 0.660347 -2.962388 25.127803 -0.000000 0.000002 0.000001 0.000000 -0.000000 -0.000001 -0.000002 0.000000 -0.000001 -0.000002 0.000000 -0.000001 -0.000002 0.000000 -0.000001 -0.000002 0.000000 -0.000001 -0.000002 0.000000 -0.000001 -0.000003 -0.000001 -0.000001 -0.000002 0.000000 -0.000001 -0.000002 0.000000 -0.000001 -0.000003 -0.000001 -0.000001 0.000002 0.000000 -0.000002 0.000002 0.000000 -0.000002 -0.000000 0.000001 -0.000000 
-3.013180 73.446510 -6.705307 54.042649 25.857565 -9.821896 -0.000003 -0.000001 0.000003 -80.695823 16.547815 -5.038069 33.030361 -8.515109 -2.896013 1.200328 -7.113990 1.665766 -0.000000 -0.000000 0.000000 -0.000000 -0.000000 0.000000 0.000000 0.000002 -0.000000 -94.475730 -14.296841 -26.509212 58.014944 1.866750 1.775084 -21.218592 -9.596274 -9.232175 0.000000 -0.000001 0.000000 0.000000 -0.000001 0.000000 -0.000001 -0.000000 0.000001 64.610816 8.834913 10.767030 -4.604848 2.121786 -7.270108 -4.479131 1.402377 -7.544279 5.016403 -3.785253 1.302248 8.018667 -22.523923 21.215367 0.000000 0.000001 -0.000000 0.000000 0.000001 -0.000000 0.000000 0.000001 -0.000000 -0.271789 3.715527 0.123031 45.454274 -29.701525 -26.128011 -0.000010 -52.192119 -0.000008 18.883487 -7.550801 28.626769 -5.023060 -1.297388 10.994196 5.842341 19.394425 1.862574 0.000001 0.000003 -0.000001 1.651019 5.955734 -18.746829 1.775124 4.619035 -42.026434 -0.000001 0.000001 -0.000002 1.701712 5.931691 -19.561578 2.553222 5.354800 -50.959177 0.000002 -0.000001 0.000004 2.242301 6.277203 -25.185378 1.356387 4.108499 -36.527565 -0.000002 -0.000001 -0.000002 4.570185 9.992833 -28.736371 0.572227 -1.319738 -23.828974 -0.000000 -0.000000 -0.000002 0.000003 0.000000 0.000000 1.068506 2.528049 -6.873030 3.784741 42.176538 -27.909664 -0.000001 28.946277 0.000020 -4.431503 1.619037 -29.687523 26.537370 20.691157 22.275101 11.076801 -14.390024 -17.068634 0.000001 0.000000 0.000001 0.332199 -2.158527 14.975439 2.071979 -4.955775 45.358351 -0.000003 0.000002 0.000000 0.501367 -2.670607 17.272952 1.855040 -4.732472 42.789574 -0.000002 0.000001 0.000002 0.842114 -3.421378 22.412851 1.830666 -4.706117 42.493636 0.000001 -0.000000 0.000002 1.076969 -3.801639 26.442978 0.660362 -2.962393 25.127796 -0.000002 0.000000 0.000000 0.000001 -0.000001 0.000001 -0.000000 0.000001 -0.000000 -0.000000 0.000001 -0.000000 -0.000000 0.000001 -0.000000 -0.000000 0.000001 -0.000000 -0.000000 0.000001 -0.000001 -0.000000 -0.000001 -0.000001 -0.000000 0.000001 -0.000000 -0.000000 0.000001 -0.000001 -0.000000 -0.000001 -0.000001 -0.000001 -0.000000 0.000001 -0.000001 -0.000000 0.000001 -0.000003 -0.000001 0.000003 
-2.931354 73.381271 -6.625820 53.961462 25.950863 -9.701195 0.000000 0.000001 0.000001 -80.658237 17.012435 -4.998589 33.451763 -8.689927 -2.940563 0.942796 -7.222914 1.877540 -0.000000 0.000000 -0.000000 -0.000000 0.000000 -0.000000 -0.000000 -0.000002 -0.000000 -94.463183 -14.005877 -26.652829 58.385700 1.995320 1.928543 -21.472095 -9.753331 -9.504028 0.000000 -0.000000 -0.000000 0.000000 -0.000000 -0.000000 0.000000 0.000000 0.000001 65.096914 9.018735 10.665842 -4.659812 2.139624 -7.199761 -4.531899 1.425024 -7.478895 4.734337 -3.860551 1.377542 8.033825 -22.596328 20.989701 -0.000002 0.000001 -0.000000 -0.000002 0.000001 -0.000000 -0.000002 0.000001 -0.000000 -0.271071 3.688611 0.078503 45.455093 -29.560936 -25.967117 -0.000006 -52.051950 -0.000012 18.831019 -7.521006 28.572870 -5.388159 -1.463298 11.080377 7.885112 20.027955 2.425025 0.000003 -0.000003 0.000000 1.599411 5.911647 -18.239783 1.790376 4.635867 -42.215627 -0.000000 -0.000001 -0.000002 1.661208 5.897158 -19.163025 2.562872 5.362583 -51.062484 -0.000001 -0.000002 -0.000000 2.211475 6.254776 -24.899820 1.359220 4.112280 -36.566937 -0.000000 -0.000003 -0.000004 4.534777 9.984667 -28.532169 0.572229 -1.319740 -23.828988 -0.000000 -0.000000 -0.000000 -0.000000 0.000001 -0.000001 0.856896 1.828483 -6.935179 3.112110 42.940156 -27.267623 -0.000003 28.786744 0.000035 -3.061862 0.588962 -29.610666 26.537375 20.691158 22.275106 11.076796 -14.390022 -17.068650 0.000001 0.000001 0.000001 0.332198 -2.158542 14.975444 2.071990 -4.955759 45.358327 -0.000001 -0.000000 0.000004 0.501369 -2.670601 17.272946 1.855046 -4.732480 42.789588 -0.000000 0.000001 -0.000000 0.842136 -3.421376 22.412854 1.830673 -4.706116 42.493622 0.000000 0.000003 0.000001 1.076982 -3.801643 26.442989 0.660362 -2.962417 25.127825 -0.000000 0.000000 0.000002 -0.000004 -0.000000 -0.000001 -0.000002 0.000001 0.000001 -0.000002 0.000001 0.000001 -0.000002 0.000001 0.000001 -0.000002 0.000001 0.000001 -0.000002 0.000001 0.000000 -0.000001 0.000001 0.000000 -0.000002 0.000001 0.000001 -0.000002 0.000001 0.000000 -0.000001 0.000001 0.000000 0.000002 0.000000 0.000001 0.000002 0.000000 0.000001 0.000000 0.000001 0.000001 
